<svg width="172" height="169" viewBox="0 0 172 169" fill="none" xmlns="http://www.w3.org/2000/svg">
<g opacity="0.7" clip-path="url(#clip0)">
<path d="M172.001 140.835C172.001 156.389 159.165 169.001 143.334 169.001C127.502 169.001 114.668 156.389 114.668 140.835C114.668 125.278 127.502 112.668 143.334 112.668C159.165 112.668 172.001 125.278 172.001 140.835Z" fill="#F9FAFC"/>
<path d="M136.168 73.937C136.168 87.5495 124.938 98.5833 111.084 98.5833C97.2299 98.5833 86.0002 87.5495 86.0002 73.937C86.0002 60.3261 97.2299 49.2908 111.084 49.2908C124.938 49.2908 136.168 60.3261 136.168 73.937Z" fill="#F9FAFC"/>
<path d="M86.0003 126.749C86.0003 150.084 66.7479 169 42.9993 169C19.2524 169 0 150.084 0 126.749C0 103.415 19.2524 84.5001 42.9993 84.5001C66.7479 84.5001 86.0003 103.415 86.0003 126.749Z" fill="#F9FAFC"/>
<path d="M71.6689 35.2094C71.6689 54.6547 55.6249 70.4188 35.8344 70.4188C16.044 70.4188 0 54.6547 0 35.2094C0 15.7641 16.044 0 35.8344 0C55.6249 0 71.6689 15.7641 71.6689 35.2094Z" fill="#F9FAFC"/>
<path d="M172.001 21.1247C172.001 32.7918 162.374 42.2494 150.499 42.2494C138.625 42.2494 129 32.7918 129 21.1247C129 9.45751 138.625 0 150.499 0C162.374 0 172.001 9.45751 172.001 21.1247Z" fill="#F9FAFC"/>
<path d="M164.832 91.5401C164.832 95.4291 161.624 98.5816 157.666 98.5816C153.708 98.5816 150.499 95.4291 150.499 91.5401C150.499 87.6526 153.708 84.5001 157.666 84.5001C161.624 84.5001 164.832 87.6526 164.832 91.5401Z" fill="#F9FAFC"/>
<path d="M111.086 24.646C111.086 30.4804 106.273 35.2091 100.335 35.2091C94.3986 35.2091 89.5859 30.4804 89.5859 24.646C89.5859 18.8132 94.3986 14.0845 100.335 14.0845C106.273 14.0845 111.086 18.8132 111.086 24.646Z" fill="#F9FAFC"/>
</g>
<defs>
<clipPath id="clip0">
<rect width="172" height="169" fill="white"/>
</clipPath>
</defs>
</svg>
