<svg width="146" height="146" viewBox="0 0 146 146" fill="none" xmlns="http://www.w3.org/2000/svg">
<g opacity="0.7" clip-path="url(#clip0)">
<path d="M24.333 48.6673C10.8994 48.6673 0 37.7721 0 24.333C0 10.8939 10.8994 0 24.333 0C37.7707 0 48.6659 10.8953 48.6659 24.333C48.6659 37.7707 59.5626 48.6673 73.0003 48.6673C86.438 48.6673 97.3332 37.7721 97.3332 24.3344C97.3332 10.8966 108.23 0 121.668 0C135.105 0 146.001 10.8953 146.001 24.333C146.001 37.7707 135.105 48.6659 121.668 48.6659C81.3461 48.6659 48.6673 81.3586 48.6673 121.665C48.6673 135.096 37.7721 145.998 24.3344 145.998C10.8966 145.998 0 135.105 0 121.668C0 108.23 10.8953 97.3332 24.333 97.3332C37.7707 97.3332 48.6631 86.438 48.6631 73.0003C48.6631 59.5626 37.7721 48.6673 24.333 48.6673Z" fill="#F9FAFC"/>
<path d="M66.917 106.458C66.917 84.6072 84.6167 66.9158 106.46 66.9158C128.304 66.9172 146.001 84.6072 146.001 106.458C146.001 128.298 128.304 146.001 106.457 146.001C84.614 146.001 66.917 128.298 66.917 106.458Z" fill="#F9FAFC"/>
</g>
<defs>
<clipPath id="clip0">
<rect width="146" height="146" fill="white"/>
</clipPath>
</defs>
</svg>
