<svg width="216" height="216" viewBox="0 0 216 216" fill="none" xmlns="http://www.w3.org/2000/svg">
<g opacity="0.7">
<path d="M35.9992 89.9911H18.001C18.001 159.581 74.4093 216 143.999 216V197.999C84.3482 197.999 35.9992 149.642 35.9992 89.9911Z" fill="#F9FAFC"/>
<path d="M143.999 18.0009V0C94.2896 0 54 40.2896 54 89.9912C54 139.701 94.2896 180.001 143.999 180.001V162C104.231 162 72.0009 129.762 72.0009 89.9938C72.0009 50.239 104.231 18.0009 143.999 18.0009Z" fill="#F9FAFC"/>
<path d="M143.999 35.9988C114.169 35.9988 89.999 60.169 89.999 89.9909C89.999 119.821 114.169 143.999 143.999 143.999V89.9988L197.999 89.9909C197.999 60.169 173.831 35.9988 143.999 35.9988Z" fill="#F9FAFC"/>
</g>
</svg>
