<svg width="234" height="65" viewBox="0 0 234 65" fill="none" xmlns="http://www.w3.org/2000/svg">
<circle cx="31" cy="31" r="31" fill="#2E324F"/>
<path d="M22.5051 45.1692C22.9834 45.4453 23.595 45.2815 23.8711 44.8032L36.4446 23.0252C37.521 21.1608 37.843 19.422 37.4107 17.8088C36.9846 16.1849 35.8422 14.8364 33.9836 13.7634C32.114 12.684 30.364 12.3625 28.7336 12.7991C27.1203 13.2313 25.7755 14.3796 24.6991 16.244L12.1256 38.0219C11.8495 38.5002 12.0134 39.1118 12.4917 39.3879L22.5051 45.1692Z" fill="url(#paint0_linear)"/>
<path d="M38.8856 45.1692C38.4073 45.4453 37.7957 45.2815 37.5195 44.8032L24.946 23.0252C23.8696 21.1608 23.5476 19.422 23.9799 17.8088C24.406 16.1849 25.5484 14.8364 27.407 13.7634C29.2766 12.684 31.0266 12.3625 32.657 12.7991C34.2703 13.2313 35.6151 14.3796 36.6915 16.244L49.265 38.0219C49.5411 38.5002 49.3773 39.1118 48.899 39.3879L38.8856 45.1692Z" fill="url(#paint1_linear)"/>
<path d="M91.808 37.456H82.752L81.152 42H76.384L84.704 19.664H89.856L98.144 42H93.376L91.808 37.456ZM90.592 34.032L87.264 24.496L83.936 34.032H90.592ZM105.491 18.32V42H100.979V18.32H105.491ZM116.917 24.048C118.41 24.048 119.69 24.4 120.757 25.104C121.824 25.808 122.581 26.7573 123.029 27.952V24.272H127.509V42H123.029V38.288C122.581 39.4827 121.824 40.4427 120.757 41.168C119.69 41.872 118.41 42.224 116.917 42.224C115.424 42.224 114.08 41.8613 112.885 41.136C111.69 40.4107 110.752 39.3653 110.069 38C109.408 36.6133 109.077 34.992 109.077 33.136C109.077 31.28 109.408 29.6693 110.069 28.304C110.752 26.9173 111.69 25.8613 112.885 25.136C114.08 24.4107 115.424 24.048 116.917 24.048ZM118.325 27.984C116.917 27.984 115.786 28.4427 114.933 29.36C114.08 30.2773 113.653 31.536 113.653 33.136C113.653 34.736 114.08 35.9947 114.933 36.912C115.786 37.808 116.917 38.256 118.325 38.256C119.69 38.256 120.81 37.7973 121.685 36.88C122.581 35.9413 123.029 34.6933 123.029 33.136C123.029 31.5573 122.581 30.3093 121.685 29.392C120.81 28.4533 119.69 27.984 118.325 27.984ZM142.558 24.016C144.606 24.016 146.238 24.688 147.454 26.032C148.67 27.376 149.278 29.264 149.278 31.696V42H144.798V32.208C144.798 30.8 144.435 29.712 143.71 28.944C142.985 28.1547 141.993 27.76 140.734 27.76C139.454 27.76 138.43 28.176 137.662 29.008C136.894 29.84 136.51 31.0347 136.51 32.592V42H131.998V24.272H136.51V27.824C136.979 26.6293 137.747 25.7013 138.814 25.04C139.902 24.3573 141.15 24.016 142.558 24.016ZM164.24 24.048C165.733 24.048 167.077 24.4107 168.272 25.136C169.467 25.8613 170.395 26.9173 171.056 28.304C171.739 29.6693 172.08 31.28 172.08 33.136C172.08 34.992 171.739 36.6133 171.056 38C170.395 39.3653 169.467 40.4107 168.272 41.136C167.077 41.8613 165.733 42.224 164.24 42.224C162.747 42.224 161.467 41.872 160.4 41.168C159.355 40.4427 158.608 39.4827 158.16 38.288V42H153.648V18.32H158.16V27.952C158.608 26.7573 159.355 25.808 160.4 25.104C161.467 24.4 162.747 24.048 164.24 24.048ZM162.832 27.984C161.467 27.984 160.336 28.4533 159.44 29.392C158.565 30.3093 158.128 31.5573 158.128 33.136C158.128 34.6933 158.565 35.9413 159.44 36.88C160.336 37.7973 161.467 38.256 162.832 38.256C164.24 38.256 165.371 37.808 166.224 36.912C167.077 35.9947 167.504 34.736 167.504 33.136C167.504 31.536 167.077 30.2773 166.224 29.36C165.371 28.4427 164.24 27.984 162.832 27.984ZM182.617 24.048C184.11 24.048 185.39 24.4 186.457 25.104C187.524 25.808 188.281 26.7573 188.729 27.952V24.272H193.209V42H188.729V38.288C188.281 39.4827 187.524 40.4427 186.457 41.168C185.39 41.872 184.11 42.224 182.617 42.224C181.124 42.224 179.78 41.8613 178.585 41.136C177.39 40.4107 176.452 39.3653 175.769 38C175.108 36.6133 174.777 34.992 174.777 33.136C174.777 31.28 175.108 29.6693 175.769 28.304C176.452 26.9173 177.39 25.8613 178.585 25.136C179.78 24.4107 181.124 24.048 182.617 24.048ZM184.025 27.984C182.617 27.984 181.486 28.4427 180.633 29.36C179.78 30.2773 179.353 31.536 179.353 33.136C179.353 34.736 179.78 35.9947 180.633 36.912C181.486 37.808 182.617 38.256 184.025 38.256C185.39 38.256 186.51 37.7973 187.385 36.88C188.281 35.9413 188.729 34.6933 188.729 33.136C188.729 31.5573 188.281 30.3093 187.385 29.392C186.51 28.4533 185.39 27.984 184.025 27.984ZM203.81 24.048C205.965 24.048 207.693 24.592 208.994 25.68C210.295 26.768 211.106 28.2187 211.426 30.032H207.202C207.031 29.1787 206.647 28.496 206.05 27.984C205.453 27.472 204.674 27.216 203.714 27.216C202.946 27.216 202.349 27.3973 201.922 27.76C201.495 28.1227 201.282 28.6133 201.282 29.232C201.282 29.7227 201.453 30.1173 201.794 30.416C202.135 30.7147 202.562 30.9493 203.074 31.12C203.586 31.2907 204.322 31.4933 205.282 31.728C206.626 32.0267 207.714 32.3467 208.546 32.688C209.399 33.008 210.125 33.5307 210.722 34.256C211.341 34.96 211.65 35.92 211.65 37.136C211.65 38.6507 211.053 39.8773 209.858 40.816C208.685 41.7547 207.095 42.224 205.09 42.224C202.786 42.224 200.941 41.712 199.554 40.688C198.167 39.6427 197.325 38.16 197.026 36.24H201.346C201.453 37.1147 201.837 37.808 202.498 38.32C203.159 38.8107 204.023 39.056 205.09 39.056C205.858 39.056 206.445 38.8747 206.85 38.512C207.255 38.128 207.458 37.6373 207.458 37.04C207.458 36.528 207.277 36.112 206.914 35.792C206.573 35.472 206.135 35.2267 205.602 35.056C205.09 34.8853 204.354 34.6827 203.394 34.448C202.071 34.1493 200.994 33.8507 200.162 33.552C199.351 33.232 198.647 32.7307 198.05 32.048C197.474 31.3653 197.186 30.4267 197.186 29.232C197.186 27.696 197.773 26.448 198.946 25.488C200.119 24.528 201.741 24.048 203.81 24.048ZM232.083 32.464C232.083 32.912 232.029 33.424 231.923 34H218.931C218.995 35.5787 219.421 36.7413 220.211 37.488C221 38.2347 221.981 38.608 223.155 38.608C224.2 38.608 225.064 38.352 225.747 37.84C226.451 37.328 226.899 36.6347 227.091 35.76H231.859C231.624 36.9973 231.123 38.1067 230.355 39.088C229.587 40.0693 228.595 40.8373 227.379 41.392C226.184 41.9467 224.851 42.224 223.379 42.224C221.651 42.224 220.115 41.8613 218.771 41.136C217.427 40.3893 216.381 39.3333 215.635 37.968C214.888 36.6027 214.515 34.992 214.515 33.136C214.515 31.28 214.888 29.6693 215.635 28.304C216.381 26.9173 217.427 25.8613 218.771 25.136C220.115 24.4107 221.651 24.048 223.379 24.048C225.128 24.048 226.653 24.4107 227.955 25.136C229.277 25.8613 230.291 26.864 230.995 28.144C231.72 29.4027 232.083 30.8427 232.083 32.464ZM227.539 32.016C227.603 30.5653 227.219 29.4667 226.387 28.72C225.576 27.9733 224.573 27.6 223.379 27.6C222.163 27.6 221.139 27.9733 220.307 28.72C219.475 29.4667 219.016 30.5653 218.931 32.016H227.539Z" fill="#2E324F"/>
<defs>
<linearGradient id="paint0_linear" x1="34.0273" y1="27.212" x2="28.0944" y2="10.3632" gradientUnits="userSpaceOnUse">
<stop stop-color="white" stop-opacity="0.7"/>
<stop offset="1" stop-color="white"/>
</linearGradient>
<linearGradient id="paint1_linear" x1="27.3633" y1="27.212" x2="33.2963" y2="10.3632" gradientUnits="userSpaceOnUse">
<stop stop-color="white" stop-opacity="0.7"/>
<stop offset="1" stop-color="white"/>
</linearGradient>
</defs>
</svg>
