<svg width="142" height="35" viewBox="0 0 142 35" fill="none" xmlns="http://www.w3.org/2000/svg">
<circle cx="17.5" cy="17.5" r="17.5" fill="#3F4254"/>
<path d="M12.601 25.9396C13.0793 26.2157 13.6909 26.0518 13.967 25.5735L20.6654 13.9717C21.258 12.9452 21.4354 11.9878 21.1973 11.0995C20.9627 10.2054 20.3337 9.46291 19.3103 8.87208C18.2809 8.27775 17.3174 8.10076 16.4197 8.34112C15.5314 8.57911 14.7909 9.21137 14.1983 10.2379L7.49993 21.8398C7.22379 22.3181 7.38766 22.9296 7.86595 23.2058L12.601 25.9396Z" fill="url(#paint0_linear)"/>
<path d="M22.3995 25.9396C21.9212 26.2157 21.3096 26.0518 21.0334 25.5735L14.3351 13.9717C13.7424 12.9452 13.5651 11.9878 13.8032 11.0995C14.0378 10.2054 14.6668 9.46291 15.6901 8.87208C16.7196 8.27775 17.6831 8.10076 18.5808 8.34112C19.4691 8.57911 20.2096 9.21137 20.8022 10.2379L27.5006 21.8398C27.7767 22.3181 27.6128 22.9296 27.1345 23.2058L22.3995 25.9396Z" fill="url(#paint1_linear)"/>
<path d="M53.98 21.52H48.74L47.9 24H44.32L49.4 9.96H53.36L58.44 24H54.82L53.98 21.52ZM53.1 18.88L51.36 13.74L49.64 18.88H53.1ZM63.4061 9.2V24H59.9861V9.2H63.4061ZM65.2045 18.4C65.2045 17.2533 65.4179 16.2467 65.8445 15.38C66.2845 14.5133 66.8779 13.8467 67.6245 13.38C68.3712 12.9133 69.2045 12.68 70.1245 12.68C70.9112 12.68 71.5979 12.84 72.1845 13.16C72.7845 13.48 73.2445 13.9 73.5645 14.42V12.84H76.9845V24H73.5645V22.42C73.2312 22.94 72.7645 23.36 72.1645 23.68C71.5779 24 70.8912 24.16 70.1045 24.16C69.1979 24.16 68.3712 23.9267 67.6245 23.46C66.8779 22.98 66.2845 22.3067 65.8445 21.44C65.4179 20.56 65.2045 19.5467 65.2045 18.4ZM73.5645 18.42C73.5645 17.5667 73.3245 16.8933 72.8445 16.4C72.3779 15.9067 71.8045 15.66 71.1245 15.66C70.4445 15.66 69.8645 15.9067 69.3845 16.4C68.9179 16.88 68.6845 17.5467 68.6845 18.4C68.6845 19.2533 68.9179 19.9333 69.3845 20.44C69.8645 20.9333 70.4445 21.18 71.1245 21.18C71.8045 21.18 72.3779 20.9333 72.8445 20.44C73.3245 19.9467 73.5645 19.2733 73.5645 18.42ZM86.2588 12.72C87.5654 12.72 88.6054 13.1467 89.3788 14C90.1654 14.84 90.5588 16 90.5588 17.48V24H87.1588V17.94C87.1588 17.1933 86.9654 16.6133 86.5788 16.2C86.1921 15.7867 85.6721 15.58 85.0188 15.58C84.3654 15.58 83.8454 15.7867 83.4588 16.2C83.0721 16.6133 82.8788 17.1933 82.8788 17.94V24H79.4588V12.84H82.8788V14.32C83.2254 13.8267 83.6921 13.44 84.2788 13.16C84.8654 12.8667 85.5254 12.72 86.2588 12.72ZM96.3553 14.42C96.6753 13.9 97.1353 13.48 97.7353 13.16C98.3353 12.84 99.022 12.68 99.7953 12.68C100.715 12.68 101.549 12.9133 102.295 13.38C103.042 13.8467 103.629 14.5133 104.055 15.38C104.495 16.2467 104.715 17.2533 104.715 18.4C104.715 19.5467 104.495 20.56 104.055 21.44C103.629 22.3067 103.042 22.98 102.295 23.46C101.549 23.9267 100.715 24.16 99.7953 24.16C99.0086 24.16 98.322 24.0067 97.7353 23.7C97.1486 23.38 96.6886 22.96 96.3553 22.44V24H92.9353V9.2H96.3553V14.42ZM101.235 18.4C101.235 17.5467 100.995 16.88 100.515 16.4C100.049 15.9067 99.4686 15.66 98.7753 15.66C98.0953 15.66 97.5153 15.9067 97.0353 16.4C96.5686 16.8933 96.3353 17.5667 96.3353 18.42C96.3353 19.2733 96.5686 19.9467 97.0353 20.44C97.5153 20.9333 98.0953 21.18 98.7753 21.18C99.4553 21.18 100.035 20.9333 100.515 20.44C100.995 19.9333 101.235 19.2533 101.235 18.4ZM105.83 18.4C105.83 17.2533 106.043 16.2467 106.47 15.38C106.91 14.5133 107.503 13.8467 108.25 13.38C108.996 12.9133 109.83 12.68 110.75 12.68C111.536 12.68 112.223 12.84 112.81 13.16C113.41 13.48 113.87 13.9 114.19 14.42V12.84H117.61V24H114.19V22.42C113.856 22.94 113.39 23.36 112.79 23.68C112.203 24 111.516 24.16 110.73 24.16C109.823 24.16 108.996 23.9267 108.25 23.46C107.503 22.98 106.91 22.3067 106.47 21.44C106.043 20.56 105.83 19.5467 105.83 18.4ZM114.19 18.42C114.19 17.5667 113.95 16.8933 113.47 16.4C113.003 15.9067 112.43 15.66 111.75 15.66C111.07 15.66 110.49 15.9067 110.01 16.4C109.543 16.88 109.31 17.5467 109.31 18.4C109.31 19.2533 109.543 19.9333 110.01 20.44C110.49 20.9333 111.07 21.18 111.75 21.18C112.43 21.18 113.003 20.9333 113.47 20.44C113.95 19.9467 114.19 19.2733 114.19 18.42ZM124.624 24.16C123.65 24.16 122.784 23.9933 122.024 23.66C121.264 23.3267 120.664 22.8733 120.224 22.3C119.784 21.7133 119.537 21.06 119.484 20.34H122.864C122.904 20.7267 123.084 21.04 123.404 21.28C123.724 21.52 124.117 21.64 124.584 21.64C125.01 21.64 125.337 21.56 125.564 21.4C125.804 21.2267 125.924 21.0067 125.924 20.74C125.924 20.42 125.757 20.1867 125.424 20.04C125.09 19.88 124.55 19.7067 123.804 19.52C123.004 19.3333 122.337 19.14 121.804 18.94C121.27 18.7267 120.81 18.4 120.424 17.96C120.037 17.5067 119.844 16.9 119.844 16.14C119.844 15.5 120.017 14.92 120.364 14.4C120.724 13.8667 121.244 13.4467 121.924 13.14C122.617 12.8333 123.437 12.68 124.384 12.68C125.784 12.68 126.884 13.0267 127.684 13.72C128.497 14.4133 128.964 15.3333 129.084 16.48H125.924C125.87 16.0933 125.697 15.7867 125.404 15.56C125.124 15.3333 124.75 15.22 124.284 15.22C123.884 15.22 123.577 15.3 123.364 15.46C123.15 15.6067 123.044 15.8133 123.044 16.08C123.044 16.4 123.21 16.64 123.544 16.8C123.89 16.96 124.424 17.12 125.144 17.28C125.97 17.4933 126.644 17.7067 127.164 17.92C127.684 18.12 128.137 18.4533 128.524 18.92C128.924 19.3733 129.13 19.9867 129.144 20.76C129.144 21.4133 128.957 22 128.584 22.52C128.224 23.0267 127.697 23.4267 127.004 23.72C126.324 24.0133 125.53 24.16 124.624 24.16ZM141.756 18.24C141.756 18.56 141.736 18.8933 141.696 19.24H133.956C134.009 19.9333 134.229 20.4667 134.616 20.84C135.016 21.2 135.503 21.38 136.076 21.38C136.929 21.38 137.523 21.02 137.856 20.3H141.496C141.309 21.0333 140.969 21.6933 140.476 22.28C139.996 22.8667 139.389 23.3267 138.656 23.66C137.923 23.9933 137.103 24.16 136.196 24.16C135.103 24.16 134.129 23.9267 133.276 23.46C132.423 22.9933 131.756 22.3267 131.276 21.46C130.796 20.5933 130.556 19.58 130.556 18.42C130.556 17.26 130.789 16.2467 131.256 15.38C131.736 14.5133 132.403 13.8467 133.256 13.38C134.109 12.9133 135.089 12.68 136.196 12.68C137.276 12.68 138.236 12.9067 139.076 13.36C139.916 13.8133 140.569 14.46 141.036 15.3C141.516 16.14 141.756 17.12 141.756 18.24ZM138.256 17.34C138.256 16.7533 138.056 16.2867 137.656 15.94C137.256 15.5933 136.756 15.42 136.156 15.42C135.583 15.42 135.096 15.5867 134.696 15.92C134.309 16.2533 134.069 16.7267 133.976 17.34H138.256Z" fill="white"/>
<defs>
<linearGradient id="paint0_linear" x1="19.3344" y1="16.277" x2="16.0677" y2="6.99994" gradientUnits="userSpaceOnUse">
<stop stop-color="white" stop-opacity="0.7"/>
<stop offset="1" stop-color="white"/>
</linearGradient>
<linearGradient id="paint1_linear" x1="15.6661" y1="16.277" x2="18.9328" y2="6.99994" gradientUnits="userSpaceOnUse">
<stop stop-color="white" stop-opacity="0.7"/>
<stop offset="1" stop-color="white"/>
</linearGradient>
</defs>
</svg>
