<svg width="16" height="16" viewBox="0 0 16 16" fill="none" xmlns="http://www.w3.org/2000/svg">
<path fill-rule="evenodd" clip-rule="evenodd" d="M11 6.95703C11 9.44231 8.98528 11.457 6.5 11.457C4.01472 11.457 2 9.44231 2 6.95703C2 4.47175 4.01472 2.45703 6.5 2.45703C8.98528 2.45703 11 4.47175 11 6.95703ZM10.3562 12.1901C9.27746 12.9864 7.94369 13.457 6.5 13.457C2.91015 13.457 -2.38363e-07 10.5469 -3.95281e-07 6.95703C-5.52198e-07 3.36718 2.91015 0.45703 6.5 0.45703C10.0899 0.45703 13 3.36718 13 6.95703C13 8.4008 12.5293 9.73463 11.7329 10.8134C11.7974 10.8533 11.8582 10.9012 11.9141 10.9571L15.2499 14.2929C15.6404 14.6834 15.6404 15.3166 15.2499 15.7071C14.8594 16.0976 14.2262 16.0976 13.8357 15.7071L10.4999 12.3713C10.444 12.3154 10.3961 12.2545 10.3562 12.1901Z" fill="#B9BFCF"/>
</svg>
