<svg width="9" height="16" viewBox="0 0 9 16" fill="none" xmlns="http://www.w3.org/2000/svg">
<path d="M3.99236 12.1504C3.08133 12.1504 2.34375 12.9096 2.34375 13.8207C2.34375 14.7101 3.05961 15.491 3.99236 15.491C4.9251 15.491 5.66268 14.7101 5.66268 13.8207C5.66268 12.9096 4.90351 12.1504 3.99236 12.1504Z" fill="#187DE4"/>
<path d="M4.2734 0C1.34491 0 0 1.73536 0 2.90677C0 3.75282 0.715801 4.14327 1.30154 4.14327C2.47288 4.14327 1.99568 2.47294 4.2083 2.47294C5.29296 2.47294 6.16067 2.95021 6.16067 3.94805C6.16067 5.11951 4.94589 5.79194 4.23002 6.39933C3.60097 6.94163 2.77664 7.83106 2.77664 9.69661C2.77664 10.8246 3.08027 11.15 3.9697 11.15C5.03264 11.15 5.24952 10.6728 5.24952 10.2606C5.24952 9.1326 5.2713 8.48183 6.46436 7.54908C7.05004 7.09354 8.89393 5.61843 8.89393 3.57932C8.89393 1.5402 7.05004 0 4.2734 0Z" fill="#187DE4"/>
</svg>
