<svg width="123" height="108" viewBox="0 0 123 108" fill="none" xmlns="http://www.w3.org/2000/svg">
<path opacity="0.5" d="M123 42.7249C123 66.4561 98.3033 124.999 88.3662 103.239C67.2336 56.9637 -0.000228763 113 0 70C0.000129356 45.6853 55.4933 16.6207 84.257 12.4679C105.758 9.36361 123 21.9603 123 42.7249Z" fill="#EFF1F5"/>
<path opacity="0.4" d="M90.3932 63.8216C90.3015 63.3475 90.0944 62.9034 89.7903 62.5283C89.179 61.8755 88.527 61.2634 87.8853 60.6413C87.2387 60.0237 86.5863 59.4132 85.9194 58.8145C85.2609 58.2092 84.5834 57.6225 83.9065 57.0354C82.5416 55.872 81.1433 54.7412 79.6955 53.6619C79.0342 53.1721 78.3629 52.6923 77.6814 52.2227C77.8426 51.7848 77.875 51.31 77.775 50.8543C77.6749 50.3986 77.4465 49.981 77.1167 49.651L76.1217 48.656C75.9479 48.4819 75.7489 48.335 75.5313 48.2203C80.0862 42.2591 82.205 34.7894 81.4582 27.3245C80.7115 19.8595 77.1551 12.9575 71.5097 8.01674C65.8642 3.07595 58.5517 0.465795 51.0537 0.715073C43.5556 0.964352 36.4327 4.05442 31.1278 9.35927C25.823 14.6641 22.7329 21.7871 22.4836 29.2851C22.2343 36.7832 24.8445 44.0956 29.7853 49.7411C34.7261 55.3866 41.6281 58.9429 49.093 59.6897C56.558 60.4364 64.0276 58.3177 69.9888 53.7628C70.1033 53.9804 70.25 54.1795 70.4241 54.3532L71.4191 55.3484C71.7491 55.6782 72.1667 55.9066 72.6224 56.0066C73.0781 56.1066 73.5529 56.0741 73.9908 55.9129C74.4585 56.5961 74.9383 57.2674 75.43 57.927C76.5093 59.3759 77.6401 60.7733 78.8035 62.1379C79.3906 62.815 79.9773 63.4926 80.5828 64.1511C81.1801 64.8178 81.7918 65.4703 82.4094 66.1167C83.0317 66.7587 83.6436 67.4107 84.2964 68.022C84.6715 68.3261 85.1156 68.5331 85.5897 68.6249C86.2439 68.7488 86.9176 68.7232 87.5606 68.55C88.2286 68.3867 88.839 68.0432 89.3253 67.557C89.8115 67.0707 90.155 66.4603 90.3183 65.7922C90.4916 65.1494 90.5172 64.4757 90.3932 63.8216ZM32.5447 49.7561C28.6896 45.9015 26.064 40.9903 25.0001 35.6435C23.9363 30.2967 24.4819 24.7546 26.5679 19.7179C28.6539 14.6811 32.1867 10.3762 36.7195 7.34733C41.2523 4.31849 46.5814 2.70184 52.033 2.70184C57.4846 2.70184 62.8138 4.31849 67.3466 7.34733C71.8794 10.3762 75.4121 14.6811 77.4982 19.7179C79.5842 24.7546 80.1298 30.2967 79.0659 35.6435C78.002 40.9903 75.3765 45.9015 71.5213 49.7561C66.3524 54.9242 59.3424 57.8275 52.033 57.8275C44.7237 57.8275 37.7136 54.9242 32.5447 49.7561Z" fill="#9099B1"/>
<path opacity="0.3" d="M73.9907 55.9131L77.6814 52.2227C77.6814 52.2227 76.7006 55.0326 73.9907 55.9131Z" fill="#9099B1"/>
</svg>
