<svg width="14" height="14" viewBox="0 0 14 14" fill="none" xmlns="http://www.w3.org/2000/svg">
<path d="M0.132827 13.2383L3.7474 9.68154C2.80086 8.65315 2.21927 7.29309 2.21927 5.79648C2.21973 2.59497 4.85672 0 8.10987 0C11.363 0 14 2.59497 14 5.79648C14 8.99799 11.363 11.593 8.10987 11.593C6.70428 11.593 5.41511 11.1068 4.40249 10.2985L0.773888 13.8694C0.597084 14.0435 0.310042 14.0435 0.133238 13.8694C-0.0439777 13.6952 -0.0439777 13.4125 0.132827 13.2383ZM8.10987 10.7011C10.8624 10.7011 13.0937 8.50526 13.0937 5.79648C13.0937 3.08771 10.8624 0.891823 8.10987 0.891823C5.35733 0.891823 3.12601 3.08771 3.12601 5.79648C3.12601 8.50526 5.35733 10.7011 8.10987 10.7011Z" fill="#A7AAB4"/>
</svg>
