<svg width="58" height="58" viewBox="0 0 58 58" fill="none" xmlns="http://www.w3.org/2000/svg">
<path d="M45.9167 7.25H12.0833C9.41396 7.25 7.25 9.41396 7.25 12.0833V45.9167C7.25 48.586 9.41396 50.75 12.0833 50.75H45.9167C48.586 50.75 50.75 48.586 50.75 45.9167V12.0833C50.75 9.41396 48.586 7.25 45.9167 7.25Z" stroke="#187DE4" stroke-width="2" stroke-linecap="round" stroke-linejoin="round"/>
<path d="M20.542 24.1667C22.544 24.1667 24.167 22.5437 24.167 20.5417C24.167 18.5397 22.544 16.9167 20.542 16.9167C18.54 16.9167 16.917 18.5397 16.917 20.5417C16.917 22.5437 18.54 24.1667 20.542 24.1667Z" stroke="#187DE4" stroke-width="2" stroke-linecap="round" stroke-linejoin="round"/>
<path d="M50.7497 36.25L38.6663 24.1667L12.083 50.75" stroke="#187DE4" stroke-width="2" stroke-linecap="round" stroke-linejoin="round"/>
</svg>
