<svg width="17" height="16" viewBox="0 0 17 16" fill="none" xmlns="http://www.w3.org/2000/svg">
<path d="M8.08493 0C9.35248 0 10.5585 0.290404 11.6407 0.809885C11.8104 0.886455 11.9812 0.978097 12.1504 1.06982L11.4083 1.72712L10.2959 0.58089L8.37906 2.26183L7.25028 1.05435L3.72551 4.1874L5.98218 6.64791L5.1012 7.41185L7.32765 9.87236L6.44658 10.636L9.63137 14.1358L11.5163 12.424L13.1558 14.2584C12.8308 14.503 12.4753 14.748 12.0893 14.9616C10.9141 15.6187 9.55352 16 8.10054 16C3.63242 16 5.12037e-05 12.4094 5.12037e-05 7.99313C-0.0157276 3.60674 3.61728 0 8.08493 0ZM6.6006 7.50374L8.53307 5.79201L10.2649 7.70226L8.33201 9.41382L6.6006 7.50374ZM7.97686 10.8048L9.89361 9.07796L11.6407 10.9881L9.7081 12.6999L7.97686 10.8048ZM5.22554 4.24873L7.15745 2.537L8.88886 4.44725L6.95631 6.1589L5.22554 4.24873ZM8.765 3.33149L10.2028 2.04784L11.5017 3.46916L10.0639 4.76798L8.765 3.33149ZM11.3315 9.21522L12.7689 7.93149L14.0677 9.36765L12.6298 10.6522L11.3315 9.21522ZM12.599 12.1039L14.0369 10.8199L15.3347 12.2412L13.8973 13.5398L12.599 12.1039ZM13.1866 5.5016L14.1449 4.6457L15.0103 5.59356L14.0521 6.44915L13.1866 5.5016ZM11.9498 2.67435L12.9082 1.80344L13.7743 2.76607L12.8151 3.6219L11.9498 2.67435ZM14.4077 8.32909L15.366 7.47327L16.2472 8.42081L15.2736 9.2764L14.4077 8.32909ZM10.0947 6.20477L11.5326 4.92103L12.8308 6.34204L11.3936 7.62601L10.0947 6.20477Z" fill="#036CB5"/>
</svg>
