<svg width="17" height="22" viewBox="0 0 17 22" fill="none" xmlns="http://www.w3.org/2000/svg">
<path fill-rule="evenodd" clip-rule="evenodd" d="M0.0627442 11.3112C0.0627442 10.1412 0.163331 9.39862 2.64796 7.58985C4.70496 6.09233 11.2984 0.974976 11.2984 0.974976V9.51748H16.3125V21.8123H1.62884C0.767506 21.8123 0.0625 21.1247 0.0625 20.2847L0.0627442 11.3112Z" fill="#FFCF01"/>
<path fill-rule="evenodd" clip-rule="evenodd" d="M11.2983 9.51733V14.4671L2.08447 20.5887L13.7337 16.8922V9.51733H11.2983Z" fill="#D3AC06"/>
<path fill-rule="evenodd" clip-rule="evenodd" d="M7.08766 9.26142C7.62651 8.63528 8.41342 8.41429 8.84551 8.76785C9.2776 9.12148 9.19123 9.91576 8.65238 10.5419C8.11393 11.168 7.3267 11.3887 6.89461 11.0351C6.46253 10.6815 6.54914 9.8874 7.08766 9.26134V9.26142Z" fill="#231F20"/>
</svg>
