<svg width="806" height="688" viewBox="0 0 806 688" fill="none" xmlns="http://www.w3.org/2000/svg">
<path d="M632.125 458.8C663.812 458.8 689.5 484.454 689.5 516.1C689.5 547.746 663.812 573.4 632.125 573.4C600.438 573.4 574.75 547.746 574.75 516.1C574.75 484.454 600.438 458.8 632.125 458.8Z" fill="#FF8B61"/>
<path d="M632.409 482.177C651.012 482.177 666.092 497.237 666.092 515.815C666.092 534.394 651.012 549.454 632.409 549.454C613.807 549.454 598.727 534.394 598.727 515.815C598.727 497.237 613.807 482.177 632.409 482.177Z" fill="#2D374C"/>
<path d="M632.411 498.14C642.185 498.14 650.108 506.054 650.108 515.815C650.108 525.576 642.185 533.49 632.411 533.49C622.636 533.49 614.713 525.576 614.713 515.815C614.713 506.054 622.636 498.14 632.411 498.14Z" fill="#F1E3CF"/>
<path d="M518.221 315.902C518.221 331.453 530.844 344.059 546.415 344.059C561.986 344.059 574.609 331.453 574.609 315.902C574.609 300.351 561.986 287.745 546.415 287.745C530.844 287.745 518.221 300.351 518.221 315.902Z" fill="#D33367"/>
<path d="M460.141 315.902C460.141 331.453 472.764 344.059 488.335 344.059C503.906 344.059 516.529 331.453 516.529 315.902C516.529 300.351 503.906 287.745 488.335 287.745C472.764 287.745 460.141 300.351 460.141 315.902Z" fill="#FF8B61"/>
<path d="M518.221 259.025C518.221 274.576 530.844 287.182 546.415 287.182C561.986 287.182 574.609 274.576 574.609 259.025C574.609 243.474 561.986 230.867 546.415 230.867C530.844 230.867 518.221 243.474 518.221 259.025Z" fill="#FF8B61"/>
<path d="M460 229.6V258.32C460 274.182 472.939 287.041 488.899 287.041C504.859 287.041 517.798 274.182 517.798 258.32C517.798 242.459 504.859 229.6 488.899 229.6H460Z" fill="#36868E"/>
<rect width="58.6437" height="58.567" transform="matrix(-1 0 0 1 661.588 257.757)" fill="#F1E3CF"/>
<path d="M631.836 261.941L606.556 287.188L631.836 312.435L657.116 287.188L631.836 261.941Z" fill="#36868E"/>
<path d="M678.504 240.581H643.825C643.825 259.709 659.351 275.215 678.504 275.215L678.504 240.581Z" fill="#D33367"/>
<path d="M678.504 333.219V298.585C659.351 298.585 643.825 314.091 643.825 333.219H678.504Z" fill="#D33367"/>
<path d="M586.591 333.219H621.27C621.27 314.091 605.743 298.585 586.591 298.585V333.219Z" fill="#D33367"/>
<path d="M586.591 240.581V275.215C605.743 275.215 621.27 259.709 621.27 240.581L586.591 240.581Z" fill="#D33367"/>
<path d="M747.266 589.962L706.564 630.639L747.266 671.317L787.967 630.639L747.266 589.962Z" fill="#2D374C"/>
<path d="M761.758 616.156H732.774V645.123H761.758V616.156Z" fill="#36868E"/>
<path d="M574.75 172.588V229.6H631.837C663.683 229.6 689.5 203.817 689.5 172.012V115H632.413C600.567 115 574.75 140.783 574.75 172.588Z" fill="#36868E"/>
<path d="M599.545 172.3C599.545 190.906 614.648 205.989 633.278 205.989C651.908 205.989 667.011 190.906 667.011 172.3V138.611L633.278 138.611C614.648 138.611 599.545 153.694 599.545 172.3Z" fill="#2D374C"/>
<path d="M574.75 206.968V229.888H597.7C616.712 229.888 632.125 214.496 632.125 195.508V172.588H609.175C590.163 172.588 574.75 187.981 574.75 206.968Z" fill="#FF8B61"/>
<path d="M804.25 172.588V229.6H747.163C715.317 229.6 689.5 203.817 689.5 172.012V115H746.587C778.433 115 804.25 140.783 804.25 172.588Z" fill="#D33367"/>
<path d="M779.455 172.3C779.455 190.906 764.352 205.989 745.722 205.989C727.092 205.989 711.989 190.906 711.989 172.3V138.611L745.722 138.611C764.352 138.611 779.455 153.694 779.455 172.3Z" fill="#2D374C"/>
<path d="M804.25 206.968V229.888H781.3C762.287 229.888 746.875 214.496 746.875 195.508V172.588H769.825C788.837 172.588 804.25 187.981 804.25 206.968Z" fill="#FF8B61"/>
<path d="M746.875 458.8C715.188 458.8 689.5 484.454 689.5 516.1C689.5 547.746 715.188 573.4 746.875 573.4H804.25V516.1C804.25 484.454 778.562 458.8 746.875 458.8Z" fill="#F1E3CF"/>
<path d="M804.25 539.18C804.25 520.231 788.866 504.87 769.918 504.87C750.994 504.87 735.63 520.211 735.63 539.135C735.63 558.059 750.971 573.4 769.895 573.4H804.25V539.18Z" fill="#D33367"/>
<path d="M746.874 480.539C727.527 480.539 711.843 496.202 711.843 515.524C711.843 534.845 727.527 550.509 746.874 550.509C766.221 550.509 781.904 534.845 781.904 515.524C781.904 496.202 766.221 480.539 746.874 480.539Z" fill="#36868E"/>
<path d="M746.874 495.044C735.549 495.044 726.368 504.214 726.368 515.524C726.368 526.835 735.549 536.004 746.874 536.004C758.2 536.004 767.381 526.835 767.381 515.524C767.381 504.214 758.2 495.044 746.874 495.044Z" fill="#2D374C"/>
<path d="M517.391 449.379C544.018 449.379 565.603 427.822 565.603 401.23C565.603 374.638 544.018 353.081 517.391 353.081C490.765 353.081 469.18 374.638 469.18 401.23C469.18 427.822 490.765 449.379 517.391 449.379Z" fill="#F1E3CF"/>
<path d="M515.704 458.8C484.939 458.8 460 433.893 460 403.169V401.5H461.671C492.436 401.5 517.375 426.407 517.375 457.131V458.8H515.704Z" fill="#D33367"/>
<path d="M573.079 401.5H574.75V403.169C574.75 433.893 549.811 458.8 519.046 458.8H517.375V457.131C517.375 426.407 542.314 401.5 573.079 401.5Z" fill="#36868E"/>
<path d="M519.046 401.5H517.375V399.831C517.375 369.107 542.314 344.2 573.079 344.2H574.75V345.869C574.75 376.593 549.811 401.5 519.046 401.5Z" fill="#D33367"/>
<path d="M461.671 344.2C492.436 344.2 517.375 369.107 517.375 399.831V401.5H515.704C484.939 401.5 460 376.593 460 345.869V344.2H461.671Z" fill="#36868E"/>
<path d="M10.4336 516.117C10.4336 542.708 32.0188 564.265 58.6455 564.265C85.2722 564.265 106.857 542.708 106.857 516.117C106.857 489.525 85.2722 467.968 58.6455 467.968C32.0188 467.968 10.4336 489.525 10.4336 516.117Z" fill="#F1E3CF"/>
<path d="M1.00001 514.431C1.00001 483.707 25.9395 458.8 56.7039 458.8H58.375V460.469C58.375 491.193 33.4355 516.1 2.67112 516.1H1.00001V514.431Z" fill="#D33367"/>
<path d="M58.375 571.731V573.4H56.7039C25.9395 573.4 1.00001 548.493 1.00001 517.769V516.1H2.67112C33.4355 516.1 58.375 541.007 58.375 571.731Z" fill="#36868E"/>
<path d="M58.375 517.769V516.1H60.0461C90.8105 516.1 115.75 541.007 115.75 571.731V573.4H114.079C83.3145 573.4 58.375 548.493 58.375 517.769Z" fill="#D33367"/>
<path d="M115.75 460.469C115.75 491.193 90.8105 516.1 60.0461 516.1H58.375V514.431C58.375 483.707 83.3145 458.8 114.079 458.8H115.75V460.469Z" fill="#36868E"/>
<path d="M804.25 458.8H689.5V344.2C752.875 344.2 804.25 395.508 804.25 458.8Z" fill="#D33367"/>
<path d="M754.629 458.8H689.501V393.597C725.47 393.597 754.629 422.789 754.629 458.8Z" fill="#F1E3CF"/>
<path d="M719.385 458.8H689.499V428.88C706.004 428.88 719.385 442.276 719.385 458.8Z" fill="#2D374C"/>
<path d="M1.00002 458.8L1.00002 344.2H115.75C115.75 407.492 64.3747 458.8 1.00002 458.8Z" fill="#36868E"/>
<path d="M1.00053 409.403L1.00053 344.2H66.1289C66.1289 380.211 36.9699 409.403 1.00053 409.403Z" fill="#F1E3CF"/>
<path d="M0.999018 374.12L0.999018 344.2H30.8848C30.8848 360.724 17.5045 374.12 0.999018 374.12Z" fill="#2D374C"/>
<path d="M689.5 344.2V458.8H574.75C574.75 395.508 626.125 344.2 689.5 344.2Z" fill="#36868E"/>
<path d="M689.499 393.597V458.8H624.371C624.371 422.789 653.53 393.597 689.499 393.597Z" fill="#F1E3CF"/>
<path d="M689.499 428.88V458.8H659.613C659.613 442.276 672.994 428.88 689.499 428.88Z" fill="#2D374C"/>
<path d="M58.6621 115C90.3494 115 116.037 140.654 116.037 172.3C116.037 203.946 90.3494 229.6 58.6621 229.6C26.9748 229.6 1.28711 203.946 1.28711 172.3C1.28711 140.654 26.9748 115 58.6621 115Z" fill="#36868E"/>
<path d="M58.944 138.089C78.0187 138.089 93.4818 153.532 93.4818 172.581C93.4818 191.631 78.0187 207.074 58.944 207.074C39.8693 207.074 24.4062 191.631 24.4062 172.581C24.4062 153.532 39.8693 138.089 58.944 138.089Z" fill="#F1E3CF"/>
<path d="M59.5081 154.702C69.7073 154.702 77.9753 162.959 77.9753 173.145C77.9753 183.331 69.7073 191.588 59.5081 191.588C49.309 191.588 41.041 183.331 41.041 173.145C41.041 162.959 49.309 154.702 59.5081 154.702Z" fill="#2D374C"/>
<path d="M116.038 160.051L116.038 229.6H46.3984C46.3984 191.189 77.5771 160.051 116.038 160.051Z" fill="#D33367"/>
<path d="M632.125 573.4C663.812 573.4 689.5 599.054 689.5 630.7C689.5 662.346 663.812 688 632.125 688C600.438 688 574.75 662.346 574.75 630.7C574.75 599.054 600.438 573.4 632.125 573.4Z" fill="#36868E"/>
<path d="M632.407 596.489C651.481 596.489 666.945 611.932 666.945 630.981C666.945 650.031 651.481 665.474 632.407 665.474C613.332 665.474 597.869 650.031 597.869 630.981C597.869 611.932 613.332 596.489 632.407 596.489Z" fill="#F1E3CF"/>
<path d="M632.971 613.102C643.17 613.102 651.438 621.359 651.438 631.545C651.438 641.73 643.17 649.988 632.971 649.988C622.772 649.988 614.504 641.73 614.504 631.545C614.504 621.359 622.772 613.102 632.971 613.102Z" fill="#2D374C"/>
<path d="M689.501 618.451V688H619.861C619.861 649.589 651.04 618.451 689.501 618.451Z" fill="#D33367"/>
<path d="M288.721 487.098C288.721 471.547 301.344 458.941 316.915 458.941C332.486 458.941 345.109 471.547 345.109 487.098C345.109 502.649 332.486 515.255 316.915 515.255C301.344 515.255 288.721 502.649 288.721 487.098Z" fill="#D33367"/>
<path d="M230.641 487.098C230.641 471.547 243.264 458.941 258.835 458.941C274.406 458.941 287.029 471.547 287.029 487.098C287.029 502.649 274.406 515.255 258.835 515.255C243.264 515.255 230.641 502.649 230.641 487.098Z" fill="#FF8B61"/>
<path d="M288.721 543.975C288.721 528.425 301.344 515.818 316.915 515.818C332.486 515.818 345.109 528.425 345.109 543.975C345.109 559.526 332.486 572.133 316.915 572.133C301.344 572.133 288.721 559.526 288.721 543.975Z" fill="#FF8B61"/>
<path d="M230.5 573.4V544.68C230.5 528.818 243.439 515.959 259.399 515.959C275.359 515.959 288.298 528.818 288.298 544.68C288.298 560.541 275.359 573.4 259.399 573.4H230.5Z" fill="#36868E"/>
<path d="M29.1946 629.715C13.6234 629.715 1.00046 617.108 1.00046 601.557C1.00046 586.007 13.6234 573.4 29.1946 573.4C44.7657 573.4 57.3887 586.007 57.3887 601.557C57.3887 617.108 44.7657 629.715 29.1946 629.715Z" fill="#D33367"/>
<path d="M29.1946 688C13.6234 688 1.00046 675.394 1.00046 659.843C1.00046 644.292 13.6234 631.686 29.1946 631.686C44.7657 631.686 57.3887 644.292 57.3887 659.843C57.3887 675.394 44.7657 688 29.1946 688Z" fill="#FF8B61"/>
<path d="M86.4289 629.715C70.8578 629.715 58.2349 617.108 58.2349 601.557C58.2349 586.007 70.8578 573.4 86.4289 573.4C102 573.4 114.623 586.007 114.623 601.557C114.623 617.108 102 629.715 86.4289 629.715Z" fill="#FF8B61"/>
<path d="M115.75 688H86.851C70.8906 688 57.9521 675.079 57.9521 659.139C57.9521 643.199 70.8906 630.278 86.851 630.278C102.811 630.278 115.75 643.199 115.75 659.139V688Z" fill="#36868E"/>
<rect x="432.088" y="545.243" width="58.6436" height="58.5671" transform="rotate(-180 432.088 545.243)" fill="#F1E3CF"/>
<path d="M402.336 541.059L377.056 515.812L402.336 490.565L427.616 515.812L402.336 541.059Z" fill="#36868E"/>
<path d="M449.004 562.419H414.325C414.325 543.291 429.851 527.785 449.004 527.785L449.004 562.419Z" fill="#D33367"/>
<path d="M449.004 469.781V504.415C429.851 504.415 414.325 488.909 414.325 469.781H449.004Z" fill="#D33367"/>
<path d="M357.091 469.781H391.77C391.77 488.909 376.243 504.415 357.091 504.415V469.781Z" fill="#D33367"/>
<path d="M357.091 562.419V527.785C376.243 527.785 391.77 543.291 391.77 562.419H357.091Z" fill="#D33367"/>
<path d="M58.7656 327.639L18.0645 286.961L58.7656 246.284L99.4668 286.961L58.7656 327.639Z" fill="#FF8B61"/>
<path d="M58.7656 307.444L38.2712 286.961L58.7656 266.478L79.2601 286.961L58.7656 307.444Z" fill="#F1E3CF"/>
<path d="M287.875 573.4C319.562 573.4 345.25 599.054 345.25 630.7C345.25 662.346 319.562 688 287.875 688H230.5L230.5 630.7C230.5 599.054 256.188 573.4 287.875 573.4Z" fill="#F1E3CF"/>
<path d="M264.81 619.47C283.758 619.47 299.119 634.811 299.119 653.735C299.119 672.659 283.758 688 264.81 688H230.5L230.5 653.735C230.5 634.811 245.861 619.47 264.81 619.47Z" fill="#2D374C"/>
<path d="M287.874 595.139C307.221 595.139 322.905 610.802 322.905 630.124C322.905 649.445 307.221 665.109 287.874 665.109C268.527 665.109 252.844 649.445 252.844 630.124C252.844 610.802 268.527 595.139 287.874 595.139Z" fill="#36868E"/>
<path d="M287.876 609.645C299.201 609.645 308.382 618.814 308.382 630.125C308.382 641.435 299.201 650.605 287.876 650.605C276.55 650.605 267.369 641.435 267.369 630.125C267.369 618.814 276.55 609.645 287.876 609.645Z" fill="#2D374C"/>
<path d="M345.25 630.412V573.4H402.337C434.183 573.4 460 599.183 460 630.988V688H402.913C371.067 688 345.25 662.217 345.25 630.412Z" fill="#36868E"/>
<path d="M370.045 630.7C370.045 612.094 385.148 597.011 403.778 597.011C422.408 597.011 437.511 612.094 437.511 630.7V664.389H403.778C385.148 664.389 370.045 649.306 370.045 630.7Z" fill="#2D374C"/>
<path d="M345.25 596.032V573.112H368.2C387.212 573.112 402.625 588.505 402.625 607.492V630.412H379.675C360.663 630.412 345.25 615.02 345.25 596.032Z" fill="#FF8B61"/>
<path d="M402.625 458.8C370.938 458.8 345.25 433.146 345.25 401.5C345.25 369.854 370.938 344.2 402.625 344.2H460V401.5C460 433.146 434.312 458.8 402.625 458.8Z" fill="#F1E3CF"/>
<path d="M460 378.42C460 397.369 444.617 412.73 425.668 412.73C406.744 412.73 391.381 397.389 391.381 378.465C391.381 359.541 406.722 344.2 425.645 344.2H460V378.42Z" fill="#D33367"/>
<path d="M402.624 437.061C383.277 437.061 367.593 421.398 367.593 402.076C367.593 382.755 383.277 367.091 402.624 367.091C421.971 367.091 437.654 382.755 437.654 402.076C437.654 421.398 421.971 437.061 402.624 437.061Z" fill="#36868E"/>
<path d="M402.624 422.556C391.299 422.556 382.118 413.386 382.118 402.076C382.118 390.765 391.299 381.596 402.624 381.596C413.95 381.596 423.131 390.765 423.131 402.076C423.131 413.386 413.95 422.556 402.624 422.556Z" fill="#2D374C"/>
<path d="M747.017 334.886C773.643 334.886 795.229 313.339 795.229 286.76C795.229 260.18 773.643 238.633 747.017 238.633C720.39 238.633 698.805 260.18 698.805 286.76C698.805 313.339 720.39 334.886 747.017 334.886Z" fill="#F1E3CF"/>
<path d="M804.251 229.6C804.251 261.09 778.753 286.618 747.299 286.618C747.299 255.128 772.797 229.6 804.251 229.6Z" fill="#D33367"/>
<path d="M746.451 284.957V286.618H744.792C714.255 286.618 689.499 261.834 689.499 231.261V229.6H691.158C721.696 229.6 746.451 254.384 746.451 284.957Z" fill="#36868E"/>
<path d="M744.793 287.182H746.452V288.843C746.452 319.415 721.696 344.2 691.159 344.2H689.5V342.539C689.5 311.966 714.256 287.182 744.793 287.182Z" fill="#D33367"/>
<path d="M804.25 342.539V344.2H802.591C772.053 344.2 747.298 319.415 747.298 288.843V287.182H748.957C779.494 287.182 804.25 311.966 804.25 342.539Z" fill="#36868E"/>
<path d="M202.099 688H144.15L173.125 659.064L202.099 688Z" fill="#36868E"/>
<path d="M115.75 688L115.75 573.4H230.5L115.75 688Z" fill="#F1E3CF"/>
<path d="M230.5 688L115.75 573.4H230.5V688Z" fill="#D33367"/>
<path d="M546.637 573.4H488.688L517.662 544.464L546.637 573.4Z" fill="#FF8B61"/>
<path d="M460.287 573.4V458.8H575.037L460.287 573.4Z" fill="#36868E"/>
<path d="M575.037 573.4L460.287 458.8H575.037V573.4Z" fill="#F1E3CF"/>
<path d="M488.688 573.4H546.636L517.662 602.337L488.688 573.4Z" fill="#FF8B61"/>
<path d="M575.037 573.4V688H460.287L575.037 573.4Z" fill="#36868E"/>
<path d="M460.287 573.4L575.037 688H460.287V573.4Z" fill="#F1E3CF"/>
<path d="M747.375 0.00012207L804.75 0.00012207V57.3001C804.75 88.946 779.062 114.6 747.375 114.6L690 114.6V57.3001C690 25.6542 715.688 0.00012207 747.375 0.00012207Z" fill="#F1E3CF"/>
<path d="M747.376 24.7628C766.006 24.7628 781.109 39.8459 781.109 58.4518C781.109 77.0576 766.006 92.1407 747.376 92.1407L713.643 92.1407V58.4518C713.643 39.8459 728.745 24.7628 747.376 24.7628Z" fill="#36868E"/>
<path d="M782.089 0.00012207L805.039 0.00012207V22.9201C805.039 41.9076 789.626 57.3 770.614 57.3L747.664 57.3V34.3801C747.664 15.3926 763.077 0.00012207 782.089 0.00012207Z" fill="#D33367"/>
</svg>
